			<svg xmlns="http://www.w3.org/2000/svg" xmlns:xlink="http://www.w3.org/1999/xlink" width="41" height="41.219" viewBox="0 0 41 41.219">
			  <defs>
				 <clipPath id="clip-path">
					<rect x="-2" y="-2" width="41" height="41.219" fill="none"/>
				 </clipPath>
				 <clipPath id="clip-path-2">
					<rect id="Rectangle_2328" data-name="Rectangle 2328" width="146" height="37.218" fill="none"/>
				 </clipPath>
			  </defs>
			  <g id="Scroll_Group_69" data-name="Scroll Group 69" transform="translate(2 2)" clip-path="url(#clip-path)" style="isolation: isolate">
				 <g id="Group_3636" data-name="Group 3636" transform="translate(0 0.001)">
					<rect id="Rectangle_2322" data-name="Rectangle 2322" width="17.647" height="17.647" transform="translate(19.479 -0.001)" fill="#f36a10"/>
					<rect id="Rectangle_2323" data-name="Rectangle 2323" width="17.647" height="17.648" transform="translate(0 19.57)" fill="#7db02d"/>
					<rect id="Rectangle_2324" data-name="Rectangle 2324" width="17.647" height="17.648" transform="translate(19.479 19.57)" fill="#c10221"/>
					<rect id="Rectangle_2325" data-name="Rectangle 2325" width="17.647" height="17.647" transform="translate(0 -0.001)" fill="#0065af"/>
					<g id="Group_3635" data-name="Group 3635" transform="translate(0 0)">
					  <g id="Group_3634" data-name="Group 3634" clip-path="url(#clip-path-2)">
						 <path id="Path_2426" data-name="Path 2426" d="M44.132,6.138V10.76c0,4.281-2.747,5.138-4.923,5.138s-4.923-.857-4.923-5.138V5.392a.786.786,0,1,1,1.57,0v5.974a3.046,3.046,0,0,0,3.353,3.175,3.046,3.046,0,0,0,3.354-3.175V6.138h-.728L43.3,3.155l1.46,2.983Z" transform="translate(-11.06 -1.018)" fill="#fff"/>
						 <path id="Path_2427" data-name="Path 2427" d="M13.809,34.886v-.711H10.938V44.563a.786.786,0,1,1-1.57,0V34.175h-4.2a.724.724,0,1,1,0-1.446h8.638v-.763l2.983,1.46Z" transform="translate(-1.42 -10.312)" fill="#fff"/>
						 <path id="Path_2428" data-name="Path 2428" d="M43.993,42.548a.724.724,0,1,1-1.023,1.022l-4-4-4.342,4.341a.724.724,0,1,1-1.022-1.022l4.341-4.341L33.7,34.3a.724.724,0,1,1,1.022-1.022l4.245,4.245,3.642-3.643-.539-.54,3.142-1.076-1.077,3.142-.5-.5-3.643,3.643Z" transform="translate(-10.755 -10.409)" fill="#fff"/>
						 <path id="Path_2429" data-name="Path 2429" d="M10.237,5.029c-3.139,0-4.692,2.676-4.692,5.1s1.593,5.1,4.593,5.1c2.126,0,3.06-1.141,3.795-1.141a.671.671,0,0,1,.7.732c0,.8-2.007,1.765-4.491,1.765-4.093,0-6.2-3.157-6.2-6.457s2.107-6.457,6.3-6.457a5.443,5.443,0,0,1,3.521,1.283l.026-.022.585-.49.8,3.222L12.131,6.322l.545-.457.033-.028a3.769,3.769,0,0,0-2.472-.808" transform="translate(-1.27 -1.185)" fill="#fff"/>
					  </g>
					</g>
				 </g>
			  </g>
			</svg>